<svg version="1" xmlns="http://www.w3.org/2000/svg" width="170.667" height="170.667" viewBox="0 0 128.000000 128.000000"><path d="M54.9 1.4c-.2.2-2 .6-3.9.9-10.2 1.4-18.3 5.8-26.2 14.1-8.4 8.9-10.1 13.9-10.1 29.6 0 7.3.4 13.4 1.1 14.6.9 1.7.7 2.4-1 3.8-2.1 1.8-2.1 3.8-.3 14.6.8 4.6 4 10.6 5.4 10.2.6-.1 1.6 1 2.3 2.5 6.1 15 9.6 20.1 18.3 26.8 7.6 5.9 15.5 8.5 24.8 8 8.9-.4 9.1-.4 16-3.9 5.9-3 14.2-10.6 18-16.6 1.2-1.9 3.3-6.4 4.7-10 1.5-3.8 3.2-6.5 4-6.5 1.8 0 4.6-5.7 5.5-11 1.7-10.9 1.7-11.6 0-14.1-1.1-1.7-1.4-3.5-1-5.2.4-1.5.9-7.1 1-12.5.8-23.3-8.8-36.7-31-43.2C77.2 1.9 56.1.3 54.9 1.4z"/></svg>